<svg width="168" height="37" viewBox="0 0 168 37" fill="none" xmlns="http://www.w3.org/2000/svg">
<path d="M23.828 24.7173C23.828 26.2049 23.7593 27.6812 23.828 29.1688C23.9195 31.2973 22.512 33.2771 19.9372 33.6204C18.4037 33.8264 16.8703 34.1354 15.3483 34.3986C14.902 34.4787 14.4557 34.5588 14.0094 34.6274C11.9495 34.9593 9.88964 35.2797 7.84123 35.6345C6.50232 35.8634 4.43103 34.8563 3.85884 33.7348C3.4812 33.0024 3.27522 32.2929 3.28666 31.4919C3.29811 30.2903 3.27522 29.1002 3.29811 27.8986C3.30955 27.4523 3.16078 27.2463 2.69159 27.212C2.02786 27.1547 1.38702 27.0174 0.849167 26.5597C-0.169317 25.7014 -0.226535 24.4083 0.437196 23.0923C1.30691 21.3872 2.19952 19.6935 3.10356 18.0113C3.25233 17.7252 3.29811 17.4505 3.28666 17.1416C3.27522 15.528 3.24089 13.9145 3.59564 12.3238C4.01905 10.4127 4.76289 8.66183 5.82715 7.02539C7.22327 4.88543 9.03137 3.18032 11.24 1.94441C13.8377 0.479625 16.6414 -0.126888 19.6396 0.0218796C23.622 0.227865 27.0208 1.71554 29.8473 4.4849C31.6211 6.21289 32.9028 8.28419 33.6352 10.6759C33.7382 11.0192 33.8526 11.3625 33.9556 11.6944C34.4477 13.8801 34.4935 16.0887 34.0929 18.2859C33.5436 21.307 32.1933 23.9391 30.0762 26.1706C29.9275 26.3308 29.71 26.4567 29.7215 26.7313C29.71 26.7771 29.6986 26.8229 29.6986 26.8687C29.6871 29.6609 29.6871 32.4417 29.6757 35.234C29.6528 35.2568 29.6414 35.2912 29.6528 35.3255C29.5956 35.4399 29.5384 35.5658 29.4697 35.6803C29.1951 36.0922 28.8289 36.2181 28.3368 36.0808C27.8447 35.9549 27.6731 35.6116 27.6731 35.1653C27.6616 32.1671 27.6731 29.1688 27.6616 26.1706C27.6616 25.7701 27.879 25.5069 28.1537 25.2551C29.8359 23.6415 31.0833 21.7533 31.7241 19.4875C32.2162 17.771 32.5252 16.0201 32.3421 14.2234C32.0789 11.2595 30.9345 8.68471 28.9776 6.4532C27.7074 4.99986 26.1739 3.91272 24.4345 3.08877C23.5305 2.66536 22.5692 2.31061 21.6079 2.20761C20.9442 2.13895 20.2461 2.03596 19.5824 1.95585C18.4152 1.81853 17.2937 1.94441 16.1951 2.18473C13.5516 2.75691 11.2057 3.96993 9.28313 5.91535C7.4407 7.78067 6.22768 9.97784 5.62116 12.5412C5.23208 14.1433 5.33507 15.7569 5.32363 17.359C5.32363 17.874 5.19775 18.3317 4.96888 18.778C4.35092 19.9567 3.72152 21.1239 3.10356 22.2912C2.79459 22.8748 2.46272 23.4585 2.17663 24.0535C1.89054 24.6371 2.03931 24.9118 2.64582 25.0949C2.98913 25.1979 3.30955 25.1864 3.65286 25.1521C4.83155 25.0377 5.20919 25.381 5.20919 26.5597C5.20919 28.1618 5.20919 29.7525 5.22064 31.3546C5.23208 32.476 5.82715 33.2313 6.87997 33.5289C7.38349 33.6776 7.85267 33.4602 8.33331 33.3915C10.0956 33.1398 11.8579 32.8766 13.6088 32.5905C15.6343 32.2586 17.637 31.8924 19.6625 31.5605C20.681 31.4003 21.3791 30.9083 21.6194 29.8554C21.7453 27.5667 21.6766 25.278 21.6537 22.9893C21.6995 22.8062 21.7109 22.6231 21.6423 22.4514C21.6423 22.4056 21.6423 22.3599 21.6423 22.3141C21.6423 22.0166 21.4134 22.0166 21.2074 21.9708C20.3606 21.7877 19.5481 21.4444 18.8843 20.9294C16.3667 18.984 15.5771 15.7454 17.1449 12.8044C19.1704 9.01658 24.3658 8.31852 27.3183 11.5113C28.9891 13.3194 29.4468 15.4479 28.7373 17.7824C28.3139 19.1785 27.4785 20.3458 26.1968 21.1354C25.4873 21.5817 24.6977 21.8335 23.9081 22.0738C23.8394 22.0967 23.8051 22.131 23.8051 22.2111C23.7822 23.0465 23.7822 23.8819 23.828 24.7173ZM22.8095 11.5685C20.4178 11.4655 18.5067 13.4796 18.4609 15.8141C18.4266 18.1486 20.4063 20.1169 22.7637 20.1398C25.1326 20.1627 27.1009 18.1829 27.0894 15.7798C27.0894 13.5025 24.9838 11.4312 22.8095 11.5685Z" fill="black"/>
<path d="M62.7103 15.2924C62.5705 14.8063 62.3741 14.3769 62.1211 14.0041C61.8681 13.6246 61.5585 13.305 61.1923 13.0453C60.8328 12.779 60.42 12.576 59.9539 12.4361C59.4945 12.2963 58.9852 12.2264 58.426 12.2264C57.3807 12.2264 56.4619 12.4861 55.6696 13.0054C54.884 13.5247 54.2715 14.2804 53.832 15.2724C53.3926 16.2578 53.1729 17.4628 53.1729 18.8876C53.1729 20.3124 53.3893 21.5241 53.8221 22.5228C54.2548 23.5215 54.8673 24.2838 55.6596 24.8098C56.4519 25.3291 57.3873 25.5887 58.4659 25.5887C59.4446 25.5887 60.2802 25.4156 60.9726 25.0694C61.6717 24.7165 62.2043 24.2205 62.5705 23.5814C62.9433 22.9422 63.1297 22.1866 63.1297 21.3144L64.0086 21.4442H58.7356V18.1885H67.2942V20.7651C67.2942 22.5627 66.9147 24.1074 66.1557 25.399C65.3967 26.6839 64.3515 27.676 63.0199 28.375C61.6883 29.0675 60.1637 29.4137 58.4459 29.4137C56.5285 29.4137 54.844 28.9909 53.3926 28.1453C51.9412 27.2931 50.8094 26.0847 49.9971 24.5201C49.1915 22.9489 48.7887 21.0847 48.7887 18.9275C48.7887 17.2697 49.0284 15.7917 49.5078 14.4934C49.9938 13.1885 50.6729 12.0833 51.5451 11.1778C52.4173 10.2723 53.4326 9.58326 54.591 9.11055C55.7495 8.63784 57.0045 8.40149 58.3561 8.40149C59.5145 8.40149 60.5931 8.57126 61.5918 8.91081C62.5904 9.24371 63.4759 9.71641 64.2483 10.3289C65.0272 10.9415 65.663 11.6705 66.1557 12.516C66.6484 13.3549 66.9647 14.2804 67.1045 15.2924H62.7103ZM70.5424 29.134V8.68112H84.3242V12.2464H74.8667V17.1199H83.6151V20.6852H74.8667V25.5688H84.3641V29.134H70.5424ZM104.869 8.68112V29.134H101.134L92.2362 16.2611H92.0864V29.134H87.7621V8.68112H91.5571L100.385 21.5441H100.565V8.68112H104.869ZM112.767 8.68112V29.134H108.442V8.68112H112.767ZM116.324 29.134V8.68112H130.106V12.2464H120.649V17.1199H129.397V20.6852H120.649V25.5688H130.146V29.134H116.324ZM143.578 29.134H138.944L146.005 8.68112H151.578L158.628 29.134H153.994L148.871 13.3549H148.711L143.578 29.134ZM143.289 21.0947H154.234V24.4702H143.289V21.0947ZM165.414 8.68112V29.134H161.09V8.68112H165.414Z" fill="black"/>
</svg>
